{"title":"The Twilight Saga Breaking Dawn - Part 2 2012 TS XViD - INSPiRAL","uid":7842268,"size":1080338148,"categoryP":"video","categoryS":"movies","magnet":"?xt=urn:btih:1c756269852d27936274aaa257b776cfe001c137&amp;dn=The+Twilight+Saga+Breaking+Dawn+-+Part+2+2012+TS+XViD+-+INSPiRAL&amp;tr=udp%3A%2F%2Ftracker.openbittorrent.com%3A80&amp;tr=udp%3A%2F%2Fopen.demonii.com%3A1337&amp;tr=udp%3A%2F%2Ftracker.coppersurfer.tk%3A6969&amp;tr=udp%3A%2F%2Fexodus.desync.com%3A6969","seeders":6,"leechers":0,"uploader":"Acesn8s","files":-1,"time":1353370456,"description":"The Twilight Saga Breaking Dawn - Part 2 2012 TS XViD - INSPiRAL\n\nSOURCES:\n\nVIDEO -  UNKNOWN THANKS\nAUDIO -  UNKNOWN THANKS\nSUBS  - None Add\n\nSTATS:\n\nVideo\nID                               : 0\nFormat                           : MPEG-4 Visual\nFormat profile                   : Advanced Simple@L5\nFormat settings, BVOP            : 2\nFormat settings, QPel            : No\nFormat settings, GMC             : No warppoints\nFormat settings, Matrix          : Default (MPEG)\nMuxing mode                      : Packed bitstream\nCodec ID                         : XVID\nCodec ID/Hint                    : XviD\nDuration                         : 1h 44mn\nBit rate                         : 1 224 Kbps\nWidth                            : 624 pixels\nHeight                           : 256 pixels\nDisplay aspect ratio             : 2.40:1\nFrame rate                       : 23.976 fps\nColor space                      : YUV\nChroma subsampling               : 4:2:0\nBit depth                        : 8 bits\nScan type                        : Progressive\nCompression mode                 : Lossy\nBits/(Pixel*Frame)               : 0.320\nStream size                      : 913 MiB (90%)\nWriting library                  : XviD 64\n\nAudio\nID                               : 1\nFormat                           : MPEG Audio\nFormat version                   : Version 1\nFormat profile                   : Layer 3\nMode                             : Joint stereo\nMode extension                   : MS Stereo\nCodec ID                         : 55\nCodec ID/Hint                    : MP3\nDuration                         : 1h 44mn\nBit rate mode                    : Constant\nBit rate                         : 128 Kbps\nChannel(s)                       : 2 channels\nSampling rate                    : 48.0 KHz\nCompression mode                 : Lossy\nStream size                      : 95.5 MiB (9%)\nAlignment                        : Split accross interleaves\nInterleave, duration             : 42 ms (1.00 video frame)\nInterleave, preload duration     : 500 ms\n\n\niMDb: &lt;a href=&quot; http://www.imdb.com/title/tt1673434/&quot; rel=&quot;nofollow&quot; target=&quot;_NEW&quot;&gt; http://www.imdb.com/title/tt1673434/&lt;/a&gt;\n\n\n\nPlot\nAfter the birth of Renesmee, the Cullens gather other vampire clans in order to protect the child from a false allegation that puts the family in front of the Volturi.\n\n\n\n\n\nVIDEO - Well the video is the spanish release according to unknowns notes,probably a little bit better and less cropped\nthat matines release....HOWEVER the video has a blurred logo top left,there is lots of camera movement,so you might get\nsea sick.The video was dark,and lacked colour aswell.\nAlso where cuts have been made the video does change AR i've noticed.\n\nAUDIO - Much better than the cam audio out,but found this a little overpowering and the balance of it a little off.\nOh also there is some minor sync issues ...little slips here and there.\n\nWORKDONE:\n\nTook the video and rotated by 1.600 to level it up better,then cropped the borders that made ( only a few pixels all round ).\nThen i resized the video,to fix the AR better...still some change throughout,but seemes better too me now.\nAlso made the video brighter and added alot more colour to it.\nSlightly tweaked the rgb colours,used a smoother aswell....\n\nAudio stripped it and dropped it into AA and first off lowered the DB's and then changed the EQ bands for a better balance/sound.\nThen resaved and remuxed.\nWill be honest and say i haven't fixed the slight slips in audio,but they don't last long and are only like 100 -200ms.\n\n\nOverall IMHO ...not great at all and normally would wait a little longer,but not alot happening atm and i'm sure someone might\nwant this lol ...if not just for the audio.\nNo doubt better video will come soon ....so either wait till then,or grab it if you want....\nv6 a6.5 m 4\n\nScreens: \n &lt;a href=&quot;\nhttp://s19.postimage.org/beah4qvlv/GNx1_D.png&quot; rel=&quot;nofollow&quot; target=&quot;_NEW&quot;&gt;\nhttp://s19.postimage.org/beah4qvlv/GNx1_D.png&lt;/a&gt; &lt;a href=&quot;\nhttp://s19.postimage.org/u7wa1qttv/ESZv_W.png&quot; rel=&quot;nofollow&quot; target=&quot;_NEW&quot;&gt;\nhttp://s19.postimage.org/u7wa1qttv/ESZv_W.png&lt;/a&gt; &lt;a href=&quot;\nhttp://s19.postimage.org/mgfk36poj/VG7az.png&quot; rel=&quot;nofollow&quot; target=&quot;_NEW&quot;&gt;\nhttp://s19.postimage.org/mgfk36poj/VG7az.png&lt;/a&gt; &lt;a href=&quot;\nhttp://s19.postimage.org/kpwj1p85f/9_Jx_Qm.png&quot; rel=&quot;nofollow&quot; target=&quot;_NEW&quot;&gt;\nhttp://s19.postimage.org/kpwj1p85f/9_Jx_Qm.png&lt;/a&gt; &lt;a href=&quot;\nhttp://s19.postimage.org/gi1qsy6pv/BUIrx.png&quot; rel=&quot;nofollow&quot; target=&quot;_NEW&quot;&gt;\nhttp://s19.postimage.org/gi1qsy6pv/BUIrx.png&lt;/a&gt; &lt;a href=&quot;\nhttp://s19.postimage.org/nmjk1zdz7/p_Soqr.png&quot; rel=&quot;nofollow&quot; target=&quot;_NEW&quot;&gt;\nhttp://s19.postimage.org/nmjk1zdz7/p_Soqr.png&lt;/a&gt; &lt;a href=&quot;\nhttp://s19.postimage.org/l6hqo4vwj/V32ln.png&quot; rel=&quot;nofollow&quot; target=&quot;_NEW&quot;&gt;\nhttp://s19.postimage.org/l6hqo4vwj/V32ln.png&lt;/a&gt;\n","torrent":{"xt":"urn:btih:1c756269852d27936274aaa257b776cfe001c137","amp;dn":"The+Twilight+Saga+Breaking+Dawn+-+Part+2+2012+TS+XViD+-+INSPiRAL","amp;tr":["udp%3A%2F%2Ftracker.openbittorrent.com%3A80","udp%3A%2F%2Fopen.demonii.com%3A1337","udp%3A%2F%2Ftracker.coppersurfer.tk%3A6969","udp%3A%2F%2Fexodus.desync.com%3A6969"],"infoHash":"1c756269852d27936274aaa257b776cfe001c137","infoHashBuffer":{"type":"Buffer","data":[28,117,98,105,133,45,39,147,98,116,170,162,87,183,118,207,224,1,193,55]},"announce":[],"urlList":[]}}